#!OML:ASF G:\JayActor3\Patient Classification 1\Patient 1\Session 6\male.ASF
:FULLY-SPECIFIED
:DEGREES
393
root 5.95553 15.8302 -3.289 33.603 -108.217 -39.3858
lowerback 5.44086 0.390279 5.02713
upperback 9.80759 0.248149 -5.64041
thorax 7.42727 0.503872 -8.93074
lowerneck -5.40678 7.08603 1.1791
upperneck 33.195 11.6386 -11.0983
head 12.7366 3.43219 -3.18529
rclavicle -9.74045e-015 2.70347e-014
rhumerus -13.3164 80.0301 -52.3768
rradius 54.1186
rwrist 18.6604
rhand 38.7435 -17.2274
rfingers 7.12502
rthumb 61.3457 -29.5129
lclavicle -9.74045e-015 2.70347e-014
lhumerus -11.5881 -53.1647 46.8336
lradius 32.9957
lwrist 4.60297
lhand 27.5314 45.638
lfingers 7.12502
lthumb 51.4745 66.0507
rfemur -42.5688 -7.67332 -2.69425
rtibia 75.6021
rfoot 5.03117 -10.8667
rtoes 5.62688
lfemur -0.576218 25.9499 -30.8604
ltibia 27.0359
lfoot -21.0206 7.27635
ltoes 2.51382
394
root 5.9168 15.8293 -3.33942 33.8913 -107.762 -40.114
lowerback 5.09076 0.417465 4.83503
upperback 9.65498 0.294474 -5.57001
thorax 7.45724 0.51518 -8.73565
lowerneck -5.30352 7.13925 1.27708
upperneck 32.9758 11.6247 -10.8112
head 12.5991 3.49534 -3.08364
rclavicle -4.03533e-014 3.18055e-015
rhumerus -17.4866 78.7303 -56.5679
rradius 51.7003
rwrist 19.2961
rhand 36.7655 -17.4857
rfingers 7.12502
rthumb 59.6642 -31.6138
lclavicle -4.03533e-014 3.18055e-015
lhumerus -10.6647 -51.8297 45.7229
lradius 31.3795
lwrist 4.08583
lhand 26.0526 45.0053
lfingers 7.12502
lthumb 50.1258 66.1618
rfemur -40.653 -7.27775 -2.74867
rtibia 74.7548
rfoot 2.98911 -9.9921
rtoes 4.15064
lfemur 0.337729 25.8523 -30.1978
ltibia 26.8521
lfoot -21.0755 6.73979
ltoes 2.3982
395
root 5.88165 15.8286 -3.39286 33.9519 -107.218 -40.581
lowerback 4.78956 0.445859 4.72727
upperback 9.49628 0.343725 -5.45241
thorax 7.45468 0.531429 -8.53688
lowerneck -5.30665 7.18349 1.27419
upperneck 32.8205 11.5961 -10.4162
head 12.4961 3.54542 -2.92444
rclavicle 2.98177e-014 -3.77691e-014
rhumerus -20.3467 77.07 -59.3796
rradius 49.3736
rwrist 19.5952
rhand 34.5011 -17.564
rfingers 7.12502
rthumb 57.7017 -33.5501
lclavicle 2.98177e-014 -3.77691e-014
lhumerus -9.73062 -50.1781 44.6577
lradius 29.8554
lwrist 3.52454
lhand 24.1154 44.1436
lfingers 7.12502
lthumb 48.3478 66.1925
rfemur -38.6744 -6.78277 -2.62627
rtibia 73.6928
rfoot 0.996168 -9.14092
rtoes 3.08773
lfemur 1.24107 25.7368 -29.3935
ltibia 26.6019
lfoot -21.0351 6.23346
ltoes 2.048
396
root 5.8464 15.8302 -3.44901 34.097 -106.674 -41.1579
lowerback 4.51315 0.458642 4.57262
upperback 9.31583 0.373356 -5.36056
thorax 7.40951 0.533234 -8.33885
lowerneck -5.14998 7.23976 1.30629
upperneck 32.5945 11.5644 -10.0317
head 12.3335 3.60565 -2.78059
rclavicle 1.98785e-015 2.5842e-014
rhumerus -22.496 75.2458 -61.5104
rradius 47.1191
rwrist 19.6235
rhand 31.8015 -17.6724
rfingers 7.12502
rthumb 55.3188 -35.5779
lclavicle 1.98785e-015 2.5842e-014
lhumerus -8.87643 -48.436 43.6057
lradius 28.4176
lwrist 3.02282
lhand 21.8679 43.0246
lfingers 7.12502
lthumb 46.271 66.0054
rfemur -36.5878 -6.22004 -2.49978
rtibia 72.4423
rfoot -0.948388 -8.20049
rtoes 1.63909
lfemur 2.19519 25.6076 -28.5863
ltibia 26.3045
lfoot -20.9375 5.73814
ltoes 1.59839
397
root 5.8105 15.8348 -3.50787 34.3449 -106.066 -41.827
lowerback 4.15146 0.452065 4.40786
upperback 9.19251 0.372455 -5.26053
thorax 7.47144 0.523381 -8.12986
lowerneck -5.16026 7.29337 1.26581
upperneck 32.4614 11.5255 -9.53243
head 12.2319 3.65702 -2.57996
rclavicle 2.28602e-014 4.83047e-014
rhumerus -23.6701 73.267 -62.6088
rradius 45.0335
rwrist 19.5219
rhand 28.7256 -17.7384
rfingers 7.12502
rthumb 52.5576 -37.5069
lclavicle 2.28602e-014 4.83047e-014
lhumerus -7.92214 -46.5446 42.4938
lradius 27.0762
lwrist 2.62871
lhand 19.2072 41.6779
lfingers 7.12502
lthumb 43.7958 65.6366
rfemur -34.4349 -5.63672 -2.31982
rtibia 71.0562
rfoot -2.62399 -7.34418
rtoes 0.239922
lfemur 3.1101 25.4035 -27.7521
ltibia 26.0489
lfoot -20.8519 5.19843
ltoes 1.34425
398
root 5.77406 15.8395 -3.56981 34.9266 -105.404 -42.892
lowerback 3.95753 1.84016 5.8089
upperback 8.49113 2.32006 -6.32198
thorax 7.33868 1.64444 -10.0771
lowerneck -3.67995 5.90703 4.97914
upperneck 32.7932 8.75647 -8.77064
head 11.9735 3.00574 -3.32013
rclavicle 3.09359e-015 -1.48095e-014
rhumerus -33.2861 65.4909 -72.3441
rradius 42.413
rwrist 21.2516
rhand 25.5215 -17.3467
rfingers 7.12502
rthumb 49.6395 -38.7567
lclavicle 3.09359e-015 -1.48095e-014
lhumerus -2.34151 -50.4083 36.728
lradius 27.0197
lwrist 4.49743
lhand 16.7298 40.9709
lfingers 7.12502
lthumb 41.4773 65.7336
rfemur -32.1152 -5.05016 -2.16206
rtibia 69.5623
rfoot -4.73856 -6.48656
rtoes -2.32601
lfemur 4.06105 25.0518 -26.9559
ltibia 25.8136
lfoot -20.7264 4.77016
ltoes 0.87445
399
root 5.73812 15.8449 -3.63684 35.5881 -104.626 -43.9641
lowerback 3.71127 1.81711 5.59611
upperback 8.26529 2.30006 -6.24568
thorax 7.20321 1.61032 -9.85426
lowerneck -3.62713 5.92386 4.96987
upperneck 32.7521 8.61866 -8.14137
head 11.8983 3.02056 -3.09131
rclavicle 2.64881e-014 -1.41137e-014
rhumerus -33.2534 63.0881 -72.1034
rradius 40.4593
rwrist 21.6293
rhand 22.1134 -17.1865
rfingers 7.12502
rthumb 46.4985 -40.0705
lclavicle 2.64881e-014 -1.41137e-014
lhumerus -1.55408 -48.2855 35.8687
lradius 26.0054
lwrist 4.41382
lhand 13.646 39.4977
lfingers 7.12502
lthumb 38.5756 65.138
rfemur -29.7883 -4.50475 -1.85512
rtibia 68.0043
rfoot -6.50498 -5.70733
rtoes -4.91923
lfemur 4.89048 24.5521 -26.1081
ltibia 25.6018
lfoot -20.5762 4.29399
ltoes 0.849599
400
root 5.70252 15.8531 -3.70584 36.4443 -103.762 -45.1655
lowerback 3.38156 1.7819 5.41495
upperback 8.04398 2.26244 -6.16957
thorax 7.12087 1.57311 -9.65058
lowerneck -3.59687 5.91751 4.99029
upperneck 32.6891 8.43879 -7.49426
head 11.8175 3.02309 -2.86611
rclavicle -3.18055e-014 5.40694e-014
rhumerus -33.2641 60.5919 -71.7941
rradius 38.7628
rwrist 21.8568
rhand 18.2291 -17.0916
rfingers 7.12502
rthumb 42.8819 -41.3791
lclavicle -3.18055e-014 5.40694e-014
lhumerus -0.69807 -46.0651 34.9686
lradius 25.1603
lwrist 4.68035
lhand 10.3653 38.0213
lfingers 7.12502
lthumb 35.4727 64.4657
rfemur -27.4822 -3.8587 -1.43313
rtibia 66.3927
rfoot -8.22699 -5.03472
rtoes -7.52587
lfemur 5.5811 23.8865 -25.2818
ltibia 25.4164
lfoot -20.3678 3.95006
ltoes 0.699098
401
root 5.6633 15.8649 -3.78177 37.6694 -102.848 -46.7558
lowerback 3.06358 1.73622 5.16202
upperback 7.79931 2.21203 -6.10671
thorax 7.00101 1.5233 -9.42044
lowerneck -3.53697 5.89144 5.00119
upperneck 32.6607 8.20623 -6.76742
head 11.7384 3.00788 -2.61859
rclavicle 1.43125e-014 -7.95139e-015
rhumerus -33.1224 58.039 -71.3518
rradius 37.0676
rwrist 22.7782
rhand 15.244 -16.5554
rfingers 7.12502
rthumb 40.0812 -41.7569
lclavicle 1.43125e-014 -7.95139e-015
lhumerus 0.135719 -43.6953 34.185
lradius 24.292
lwrist 4.87745
lhand 6.94643 36.5176
lfingers 7.12502
lthumb 32.2247 63.6782
rfemur -25.0944 -3.13338 -0.939406
rtibia 64.7211
rfoot -9.86616 -4.46103
rtoes -9.79193
lfemur 6.3033 23.2789 -24.3937
ltibia 25.2317
lfoot -20.1386 3.46779
ltoes 0.747589
402
root 5.62237 15.8795 -3.86322 39.6452 -101.8 -49.0515
lowerback 2.68085 1.67245 4.91599
upperback 7.55925 2.13737 -6.07843
thorax 6.92354 1.4657 -9.2343
lowerneck -3.6222 5.83867 5.05971
upperneck 32.7133 7.89675 -5.92619
head 11.716 2.97265 -2.34426
rclavicle 1.04362e-015 2.10712e-014
rhumerus -32.9692 55.2141 -70.8625
rradius 35.46
rwrist 23.8291
rhand 12.4955 -15.8878
rfingers 7.12502
rthumb 37.4892 -41.8242
lclavicle 1.04362e-015 2.10712e-014
lhumerus 1.09125 -41.4914 33.3058
lradius 23.5718
lwrist 5.23822
lhand 3.62184 35.1787
lfingers 7.12502
lthumb 29.0546 62.9331
rfemur -22.6811 -2.35262 -0.302979
rtibia 63.0276
rfoot -11.6215 -4.13671
rtoes -12.015
lfemur 6.95584 22.4459 -23.5155
ltibia 25.0383
lfoot -19.9066 3.0286
ltoes 0.720188
403
root 5.57729 15.8964 -3.94857 41.8097 -100.75 -51.5165
lowerback 2.21564 1.6172 4.67207
upperback 7.33204 2.07329 -6.04236
thorax 6.91174 1.4167 -9.04043
lowerneck -3.64529 5.77424 5.04378
upperneck 32.6842 7.55233 -4.99403
head 11.6416 2.92683 -2.02827
rclavicle 1.0635e-014 1.70955e-014
rhumerus -32.9068 52.4819 -70.3959
rradius 33.9936
rwrist 24.6766
rhand 9.49 -15.3697
rfingers 7.12502
rthumb 34.6425 -42.0085
lclavicle 1.0635e-014 1.70955e-014
lhumerus 2.05966 -38.5883 32.6566
lradius 22.8817
lwrist 5.6182
lhand 0.108763 34.1852
lfingers 7.12502
lthumb 25.6945 62.4709
rfemur -20.2881 -1.55155 0.460094
rtibia 61.3087
rfoot -13.4355 -3.67122
rtoes -13.1718
lfemur 7.60401 21.649 -22.5733
ltibia 24.8189
lfoot -19.6407 2.608
ltoes 0.366614
404
root 5.53344 15.9134 -4.03407 43.1743 -99.9809 -52.9489
lowerback 1.62193 1.69499 4.37859
upperback 7.02886 2.19107 -6.01536
thorax 6.92628 1.45645 -8.81645
lowerneck -3.70694 5.68674 4.96813
upperneck 32.6068 7.16512 -3.99637
head 11.5522 2.86347 -1.68264
rclavicle 1.91827e-014 -2.10712e-014
rhumerus -32.951 49.971 -69.9491
rradius 32.6928
rwrist 25.1781
rhand 6.42161 -15.1012
rfingers 7.12502
rthumb 31.725 -42.3619
lclavicle 1.91827e-014 -2.10712e-014
lhumerus 3.01766 -36.1245 31.9863
lradius 22.3888
lwrist 6.12188
lhand -2.75052 33.1923
lfingers 7.12502
lthumb 22.9534 61.8458
rfemur -18.3794 -0.535484 1.34229
rtibia 59.6272
rfoot -14.8958 -3.44368
rtoes -14.0161
lfemur 7.95782 20.9864 -21.7889
ltibia 24.6394
lfoot -19.4501 2.30893
ltoes 0.408856
405
root 5.491 15.9301 -4.1113 44.4878 -99.1955 -54.397
lowerback 1.2368 1.80298 4.33999
upperback 6.70476 2.3486 -6.086
thorax 6.82774 1.53033 -8.85159
lowerneck -3.78921 5.55087 5.00813
upperneck 32.521 6.66127 -2.89946
head 11.4656 2.7725 -1.33472
rclavicle -1.00883e-014 -6.36111e-015
rhumerus -33.2268 47.4073 -69.7087
rradius 31.4768
rwrist 25.6139
rhand 3.55628 -14.6909
rfingers 7.12502
rthumb 28.992 -42.456
lclavicle -1.00883e-014 -6.36111e-015
lhumerus 4.10525 -33.9614 31.1697
lradius 22.1328
lwrist 6.94631
lhand -5.67511 32.3847
lfingers 7.12502
lthumb 20.1447 61.3603
rfemur -16.4678 0.433667 2.28953
rtibia 57.9698
rfoot -16.3412 -3.45887
rtoes -15.315
lfemur 8.33181 20.3535 -20.962
ltibia 24.517
lfoot -19.2547 2.00589
ltoes 0.390185
406
root 5.44656 15.9425 -4.18048 45.2834 -98.4284 -55.4198
lowerback 0.812662 1.80871 4.36431
upperback 6.51284 2.36067 -6.07439
thorax 6.86672 1.53917 -8.84148
lowerneck -3.96904 5.53139 4.79697
upperneck 32.307 6.37376 -1.8245
head 11.3535 2.74968 -0.926776
rclavicle 4.8255e-014 -9.30312e-014
rhumerus -33.2803 45.8644 -69.3278
rradius 30.4719
rwrist 25.5298
rhand 0.830391 -14.4748
rfingers 7.12502
rthumb 26.3855 -42.6589
lclavicle 4.8255e-014 -9.30312e-014
lhumerus 4.87019 -31.1818 30.7593
lradius 21.8474
lwrist 7.55162
lhand -7.6421 32.1176
lfingers 7.12502
lthumb 18.2532 61.2812
rfemur -14.5438 1.41657 3.31325
rtibia 56.354
rfoot -17.6306 -3.41735
rtoes -15.7377
lfemur 8.7418 19.6145 -20.1425
ltibia 24.506
lfoot -19.1279 1.90447
ltoes -0.0249097
407
root 5.40795 15.9552 -4.25407 46.3721 -97.597 -56.6973
lowerback 0.572911 1.89329 4.49175
upperback 6.19852 2.4807 -6.14903
thorax 6.69963 1.60076 -8.98291
lowerneck -3.99967 5.40027 4.76168
upperneck 32.0634 5.86616 -0.632561
head 11.2022 2.65986 -0.538051
rclavicle -2.04251e-014 1.43125e-014
rhumerus -33.6778 43.9034 -69.1963
rradius 29.4834
rwrist 25.9417
rhand -1.39131 -13.9828
rfingers 7.12502
rthumb 24.2571 -42.4683
lclavicle -2.04251e-014 1.43125e-014
lhumerus 6.00968 -28.1214 30.4493
lradius 21.4189
lwrist 7.90547
lhand -9.80881 31.7099
lfingers 7.12502
lthumb 16.1678 61.0556
rfemur -12.7346 2.32341 4.48026
rtibia 54.7752
rfoot -18.9851 -3.70802
rtoes -16.0336
lfemur 9.03225 18.9782 -19.2028
ltibia 24.5826
lfoot -18.9198 1.5736
ltoes -0.183591
